<?xml version="1.0" encoding="utf-8"?>
<!-- Generator: Adobe Illustrator 23.0.0, SVG Export Plug-In . SVG Version: 6.00 Build 0)  -->
<svg version="1.1" id="图层_1" xmlns="http://www.w3.org/2000/svg" xmlns:xlink="http://www.w3.org/1999/xlink" x="0px" y="0px"
	 viewBox="0 0 96 96" style="enable-background:new 0 0 96 96;" xml:space="preserve">
<style type="text/css">
	.st0{fill:#FBB138;}
	.st1{fill:none;}
	.st2{fill:#48C7FF;}
	.st3{fill:#FFFFFF;}
</style>
<g>
	<path class="st0" d="M19.9,0h56.2C87.1,0,96,8.9,96,19.9v56.2c0,11-8.9,19.9-19.9,19.9H19.9C8.9,96,0,87.1,0,76.1V19.9
		C0,8.9,8.9,0,19.9,0z"/>
	<rect x="19.1" y="15.2" class="st1" width="57.7" height="65.7"/>
	<path class="st2" d="M19.9,0h56.2C87.1,0,96,8.9,96,19.9v56.2c0,11-8.9,19.9-19.9,19.9H19.9C8.9,96,0,87.1,0,76.1V19.9
		C0,8.9,8.9,0,19.9,0z"/>
	<g>
		<path class="st3" d="M68.3,22.5h-5.7c-1.4-2.7-4.1-4.3-7.1-4.3H40.1c-3,0-5.7,1.7-7.1,4.3h-5.9c-1.5,0-3,0.7-4.1,1.8
			c-1.1,1.1-1.6,2.6-1.6,4.1V63c-0.1,2.7,1.7,5.1,4.4,5.7v3.5c-0.1,1.5,0.6,3,1.7,4c1,0.8,2.3,1.3,3.5,1.3v0.2h0.2
			c2.9,0,5.3-2.4,5.3-5.3v-3.3h23.1v3.5c0,1.4,0.6,2.8,1.7,3.7c1,0.8,2.3,1.2,3.5,1.1c1.4,0.1,2.7-0.4,3.7-1.3s1.6-2.2,1.7-3.5v-4
			c2.5-0.8,4.2-3.1,4.2-5.7V28.4C74.4,25.1,71.7,22.5,68.3,22.5z M35.3,61.1c-0.8,0.8-1.8,1.2-2.9,1.2c-1.5,0.1-3-0.6-3.8-1.9
			c-0.8-1.3-0.8-3,0-4.3s2.3-2.1,3.8-1.9c2.2,0,4,1.8,4,4C36.5,59.3,36,60.3,35.3,61.1z M67.7,59.8c-0.6,1.5-2.1,2.5-3.8,2.5
			c-1.1,0-2.1-0.4-2.9-1.2c-0.8-0.8-1.2-1.8-1.2-2.9c0-1.7,1-3.1,2.5-3.8c1.5-0.6,3.3-0.3,4.5,0.9C68,56.5,68.4,58.2,67.7,59.8z
			 M68.2,48.1L68.2,48.1H27.6V31.9h40.5L68.2,48.1L68.2,48.1z"/>
		<rect x="30.7" y="35.1" class="st3" width="34.1" height="9.8"/>
	</g>
</g>
</svg>
